<?xml version="1.0" encoding="UTF-8"?>
<svg id="Layer_1" xmlns="http://www.w3.org/2000/svg" version="1.1" viewBox="0 0 200 200">
  <!-- Generator: Adobe Illustrator 29.0.0, SVG Export Plug-In . SVG Version: 2.1.0 Build 186)  -->
  <defs>
    <style>
      .st0 {
        fill: #fff;
      }

      .st1 {
        fill: #26EFEF;
        stroke-width: .3px;
      }

      .st1, .st2, .st3, .st4, .st5 {
        stroke-miterlimit: 10;
      }

      .st1, .st4, .st5 {
        stroke: #f2f2f2;
      }

      .st2 {
        stroke: #ccc;
      }

      .st2, .st3, .st4, .st5 {
        fill: none;
      }

      .st2, .st5 {
        stroke-width: 20px;
      }

      .st3 {
        stroke: aqua;
      }

      .st3, .st4 {
        stroke-width: 31.6px;
      }
    </style>
  </defs>
  <g>
    <circle class="st1" cx="84.6" cy="100" r="79.5"/>
    <line class="st3" x1="164.1" y1="100" x2="13.9" y2="100"/>
    <line class="st4" x1="139.1" y1="75.1" x2="139.1" y2="124.9"/>
    <line class="st2" x1="192.2" y1="110.5" x2="194.4" y2="108.3"/>
    <line class="st2" x1="192.2" y1="89.5" x2="194.4" y2="91.7"/>
    <line class="st5" x1="193.3" y1="100" x2="143.6" y2="100"/>
  </g>
  <!-- <path class="st0" d="M76.3,91.4h4.9c.7,0,1.2.3,1.6.9l3.4,5.5c.6.9.8,1.7.8,2.3v4.8c0,.8-.4,1.3-1.3,1.3h-36.1c-.5,0-.8,0-1-.3-.2-.2-.3-.5-.3-.9v-5.2c0-.8.4-1.3,1.3-1.3h29.2l-3.4-5.9c-.4-.8-.1-1.3.7-1.3Z"/> -->
</svg>
