<?xml version="1.0" encoding="UTF-8"?>
<svg xmlns="http://www.w3.org/2000/svg" xmlns:xlink="http://www.w3.org/1999/xlink" width="78.953" height="58.165" viewBox="0 0 78.953 58.165">
<defs>
<clipPath id="clip-0">
<path clip-rule="nonzero" d="M 0 24 L 78.953125 24 L 78.953125 58 L 0 58 Z M 0 24 "/>
</clipPath>
<clipPath id="clip-1">
<path clip-rule="nonzero" d="M 11 39 L 68 39 L 68 49 L 11 49 Z M 11 39 "/>
</clipPath>
<clipPath id="clip-2">
<path clip-rule="nonzero" d="M 11.839844 39.710938 C 11.839844 44.667969 24.210938 48.6875 39.476562 48.6875 C 54.742188 48.6875 67.113281 44.667969 67.113281 39.710938 Z M 11.839844 39.710938 "/>
</clipPath>
<linearGradient id="linear-pattern-0" gradientUnits="userSpaceOnUse" x1="0" y1="25.002858" x2="0" y2="74.997142" gradientTransform="matrix(0, -0.17955, -1.10565, 0, 94.7585, 53.17794)">
<stop offset="0" stop-color="rgb(47.50061%, 47.50061%, 47.50061%)" stop-opacity="1"/>
<stop offset="0.0078125" stop-color="rgb(47.685242%, 47.685242%, 47.685242%)" stop-opacity="1"/>
<stop offset="0.015625" stop-color="rgb(48.05603%, 48.05603%, 48.05603%)" stop-opacity="1"/>
<stop offset="0.0234375" stop-color="rgb(48.428345%, 48.428345%, 48.428345%)" stop-opacity="1"/>
<stop offset="0.03125" stop-color="rgb(48.799133%, 48.799133%, 48.799133%)" stop-opacity="1"/>
<stop offset="0.0390625" stop-color="rgb(49.169922%, 49.169922%, 49.169922%)" stop-opacity="1"/>
<stop offset="0.046875" stop-color="rgb(49.54071%, 49.54071%, 49.54071%)" stop-opacity="1"/>
<stop offset="0.0546875" stop-color="rgb(49.911499%, 49.911499%, 49.911499%)" stop-opacity="1"/>
<stop offset="0.0625" stop-color="rgb(50.282288%, 50.282288%, 50.282288%)" stop-opacity="1"/>
<stop offset="0.0703125" stop-color="rgb(50.654602%, 50.654602%, 50.654602%)" stop-opacity="1"/>
<stop offset="0.078125" stop-color="rgb(51.025391%, 51.025391%, 51.025391%)" stop-opacity="1"/>
<stop offset="0.0859375" stop-color="rgb(51.396179%, 51.396179%, 51.396179%)" stop-opacity="1"/>
<stop offset="0.09375" stop-color="rgb(51.766968%, 51.766968%, 51.766968%)" stop-opacity="1"/>
<stop offset="0.101562" stop-color="rgb(52.137756%, 52.137756%, 52.137756%)" stop-opacity="1"/>
<stop offset="0.109375" stop-color="rgb(52.510071%, 52.510071%, 52.510071%)" stop-opacity="1"/>
<stop offset="0.117187" stop-color="rgb(52.880859%, 52.880859%, 52.880859%)" stop-opacity="1"/>
<stop offset="0.125" stop-color="rgb(53.251648%, 53.251648%, 53.251648%)" stop-opacity="1"/>
<stop offset="0.132812" stop-color="rgb(53.622437%, 53.622437%, 53.622437%)" stop-opacity="1"/>
<stop offset="0.140625" stop-color="rgb(53.993225%, 53.993225%, 53.993225%)" stop-opacity="1"/>
<stop offset="0.148438" stop-color="rgb(54.364014%, 54.364014%, 54.364014%)" stop-opacity="1"/>
<stop offset="0.15625" stop-color="rgb(54.736328%, 54.736328%, 54.736328%)" stop-opacity="1"/>
<stop offset="0.164062" stop-color="rgb(55.107117%, 55.107117%, 55.107117%)" stop-opacity="1"/>
<stop offset="0.171875" stop-color="rgb(55.477905%, 55.477905%, 55.477905%)" stop-opacity="1"/>
<stop offset="0.179688" stop-color="rgb(55.848694%, 55.848694%, 55.848694%)" stop-opacity="1"/>
<stop offset="0.1875" stop-color="rgb(56.219482%, 56.219482%, 56.219482%)" stop-opacity="1"/>
<stop offset="0.195312" stop-color="rgb(56.591797%, 56.591797%, 56.591797%)" stop-opacity="1"/>
<stop offset="0.203125" stop-color="rgb(56.962585%, 56.962585%, 56.962585%)" stop-opacity="1"/>
<stop offset="0.210938" stop-color="rgb(57.333374%, 57.333374%, 57.333374%)" stop-opacity="1"/>
<stop offset="0.21875" stop-color="rgb(57.704163%, 57.704163%, 57.704163%)" stop-opacity="1"/>
<stop offset="0.226562" stop-color="rgb(58.074951%, 58.074951%, 58.074951%)" stop-opacity="1"/>
<stop offset="0.234375" stop-color="rgb(58.44574%, 58.44574%, 58.44574%)" stop-opacity="1"/>
<stop offset="0.242188" stop-color="rgb(58.818054%, 58.818054%, 58.818054%)" stop-opacity="1"/>
<stop offset="0.25" stop-color="rgb(59.188843%, 59.188843%, 59.188843%)" stop-opacity="1"/>
<stop offset="0.257812" stop-color="rgb(59.559631%, 59.559631%, 59.559631%)" stop-opacity="1"/>
<stop offset="0.265625" stop-color="rgb(59.93042%, 59.93042%, 59.93042%)" stop-opacity="1"/>
<stop offset="0.273438" stop-color="rgb(60.301208%, 60.301208%, 60.301208%)" stop-opacity="1"/>
<stop offset="0.28125" stop-color="rgb(60.671997%, 60.671997%, 60.671997%)" stop-opacity="1"/>
<stop offset="0.289062" stop-color="rgb(61.044312%, 61.044312%, 61.044312%)" stop-opacity="1"/>
<stop offset="0.296875" stop-color="rgb(61.4151%, 61.4151%, 61.4151%)" stop-opacity="1"/>
<stop offset="0.304688" stop-color="rgb(61.785889%, 61.785889%, 61.785889%)" stop-opacity="1"/>
<stop offset="0.3125" stop-color="rgb(62.156677%, 62.156677%, 62.156677%)" stop-opacity="1"/>
<stop offset="0.320313" stop-color="rgb(62.527466%, 62.527466%, 62.527466%)" stop-opacity="1"/>
<stop offset="0.328125" stop-color="rgb(62.89978%, 62.89978%, 62.89978%)" stop-opacity="1"/>
<stop offset="0.335938" stop-color="rgb(63.270569%, 63.270569%, 63.270569%)" stop-opacity="1"/>
<stop offset="0.34375" stop-color="rgb(63.641357%, 63.641357%, 63.641357%)" stop-opacity="1"/>
<stop offset="0.351562" stop-color="rgb(64.012146%, 64.012146%, 64.012146%)" stop-opacity="1"/>
<stop offset="0.359375" stop-color="rgb(64.382935%, 64.382935%, 64.382935%)" stop-opacity="1"/>
<stop offset="0.367188" stop-color="rgb(64.753723%, 64.753723%, 64.753723%)" stop-opacity="1"/>
<stop offset="0.375" stop-color="rgb(65.126038%, 65.126038%, 65.126038%)" stop-opacity="1"/>
<stop offset="0.382812" stop-color="rgb(65.496826%, 65.496826%, 65.496826%)" stop-opacity="1"/>
<stop offset="0.390625" stop-color="rgb(65.867615%, 65.867615%, 65.867615%)" stop-opacity="1"/>
<stop offset="0.398438" stop-color="rgb(66.238403%, 66.238403%, 66.238403%)" stop-opacity="1"/>
<stop offset="0.40625" stop-color="rgb(66.609192%, 66.609192%, 66.609192%)" stop-opacity="1"/>
<stop offset="0.414062" stop-color="rgb(66.981506%, 66.981506%, 66.981506%)" stop-opacity="1"/>
<stop offset="0.421875" stop-color="rgb(67.352295%, 67.352295%, 67.352295%)" stop-opacity="1"/>
<stop offset="0.429687" stop-color="rgb(67.723083%, 67.723083%, 67.723083%)" stop-opacity="1"/>
<stop offset="0.4375" stop-color="rgb(68.093872%, 68.093872%, 68.093872%)" stop-opacity="1"/>
<stop offset="0.445312" stop-color="rgb(68.464661%, 68.464661%, 68.464661%)" stop-opacity="1"/>
<stop offset="0.453125" stop-color="rgb(68.835449%, 68.835449%, 68.835449%)" stop-opacity="1"/>
<stop offset="0.460937" stop-color="rgb(69.207764%, 69.207764%, 69.207764%)" stop-opacity="1"/>
<stop offset="0.46875" stop-color="rgb(69.578552%, 69.578552%, 69.578552%)" stop-opacity="1"/>
<stop offset="0.476562" stop-color="rgb(69.949341%, 69.949341%, 69.949341%)" stop-opacity="1"/>
<stop offset="0.484375" stop-color="rgb(70.320129%, 70.320129%, 70.320129%)" stop-opacity="1"/>
<stop offset="0.492187" stop-color="rgb(70.690918%, 70.690918%, 70.690918%)" stop-opacity="1"/>
<stop offset="0.5" stop-color="rgb(71.063232%, 71.063232%, 71.063232%)" stop-opacity="1"/>
<stop offset="0.507812" stop-color="rgb(71.063232%, 71.063232%, 71.063232%)" stop-opacity="1"/>
<stop offset="0.515625" stop-color="rgb(70.692444%, 70.692444%, 70.692444%)" stop-opacity="1"/>
<stop offset="0.523437" stop-color="rgb(70.321655%, 70.321655%, 70.321655%)" stop-opacity="1"/>
<stop offset="0.53125" stop-color="rgb(69.950867%, 69.950867%, 69.950867%)" stop-opacity="1"/>
<stop offset="0.539062" stop-color="rgb(69.580078%, 69.580078%, 69.580078%)" stop-opacity="1"/>
<stop offset="0.546875" stop-color="rgb(69.207764%, 69.207764%, 69.207764%)" stop-opacity="1"/>
<stop offset="0.554688" stop-color="rgb(68.836975%, 68.836975%, 68.836975%)" stop-opacity="1"/>
<stop offset="0.5625" stop-color="rgb(68.466187%, 68.466187%, 68.466187%)" stop-opacity="1"/>
<stop offset="0.570312" stop-color="rgb(68.095398%, 68.095398%, 68.095398%)" stop-opacity="1"/>
<stop offset="0.578125" stop-color="rgb(67.724609%, 67.724609%, 67.724609%)" stop-opacity="1"/>
<stop offset="0.585938" stop-color="rgb(67.353821%, 67.353821%, 67.353821%)" stop-opacity="1"/>
<stop offset="0.59375" stop-color="rgb(66.981506%, 66.981506%, 66.981506%)" stop-opacity="1"/>
<stop offset="0.601563" stop-color="rgb(66.610718%, 66.610718%, 66.610718%)" stop-opacity="1"/>
<stop offset="0.609375" stop-color="rgb(66.239929%, 66.239929%, 66.239929%)" stop-opacity="1"/>
<stop offset="0.617187" stop-color="rgb(65.869141%, 65.869141%, 65.869141%)" stop-opacity="1"/>
<stop offset="0.625" stop-color="rgb(65.498352%, 65.498352%, 65.498352%)" stop-opacity="1"/>
<stop offset="0.632813" stop-color="rgb(65.126038%, 65.126038%, 65.126038%)" stop-opacity="1"/>
<stop offset="0.640625" stop-color="rgb(64.755249%, 64.755249%, 64.755249%)" stop-opacity="1"/>
<stop offset="0.648437" stop-color="rgb(64.38446%, 64.38446%, 64.38446%)" stop-opacity="1"/>
<stop offset="0.65625" stop-color="rgb(64.013672%, 64.013672%, 64.013672%)" stop-opacity="1"/>
<stop offset="0.664062" stop-color="rgb(63.642883%, 63.642883%, 63.642883%)" stop-opacity="1"/>
<stop offset="0.671875" stop-color="rgb(63.272095%, 63.272095%, 63.272095%)" stop-opacity="1"/>
<stop offset="0.679688" stop-color="rgb(62.89978%, 62.89978%, 62.89978%)" stop-opacity="1"/>
<stop offset="0.6875" stop-color="rgb(62.528992%, 62.528992%, 62.528992%)" stop-opacity="1"/>
<stop offset="0.695312" stop-color="rgb(62.158203%, 62.158203%, 62.158203%)" stop-opacity="1"/>
<stop offset="0.703125" stop-color="rgb(61.787415%, 61.787415%, 61.787415%)" stop-opacity="1"/>
<stop offset="0.710938" stop-color="rgb(61.416626%, 61.416626%, 61.416626%)" stop-opacity="1"/>
<stop offset="0.71875" stop-color="rgb(61.044312%, 61.044312%, 61.044312%)" stop-opacity="1"/>
<stop offset="0.726563" stop-color="rgb(60.673523%, 60.673523%, 60.673523%)" stop-opacity="1"/>
<stop offset="0.734375" stop-color="rgb(60.302734%, 60.302734%, 60.302734%)" stop-opacity="1"/>
<stop offset="0.742188" stop-color="rgb(59.931946%, 59.931946%, 59.931946%)" stop-opacity="1"/>
<stop offset="0.75" stop-color="rgb(59.561157%, 59.561157%, 59.561157%)" stop-opacity="1"/>
<stop offset="0.757813" stop-color="rgb(59.190369%, 59.190369%, 59.190369%)" stop-opacity="1"/>
<stop offset="0.765625" stop-color="rgb(58.818054%, 58.818054%, 58.818054%)" stop-opacity="1"/>
<stop offset="0.773437" stop-color="rgb(58.447266%, 58.447266%, 58.447266%)" stop-opacity="1"/>
<stop offset="0.78125" stop-color="rgb(58.076477%, 58.076477%, 58.076477%)" stop-opacity="1"/>
<stop offset="0.789063" stop-color="rgb(57.705688%, 57.705688%, 57.705688%)" stop-opacity="1"/>
<stop offset="0.796875" stop-color="rgb(57.3349%, 57.3349%, 57.3349%)" stop-opacity="1"/>
<stop offset="0.804688" stop-color="rgb(56.962585%, 56.962585%, 56.962585%)" stop-opacity="1"/>
<stop offset="0.8125" stop-color="rgb(56.591797%, 56.591797%, 56.591797%)" stop-opacity="1"/>
<stop offset="0.820312" stop-color="rgb(56.221008%, 56.221008%, 56.221008%)" stop-opacity="1"/>
<stop offset="0.828125" stop-color="rgb(55.85022%, 55.85022%, 55.85022%)" stop-opacity="1"/>
<stop offset="0.835938" stop-color="rgb(55.479431%, 55.479431%, 55.479431%)" stop-opacity="1"/>
<stop offset="0.84375" stop-color="rgb(55.108643%, 55.108643%, 55.108643%)" stop-opacity="1"/>
<stop offset="0.851563" stop-color="rgb(54.736328%, 54.736328%, 54.736328%)" stop-opacity="1"/>
<stop offset="0.859375" stop-color="rgb(54.36554%, 54.36554%, 54.36554%)" stop-opacity="1"/>
<stop offset="0.867188" stop-color="rgb(53.994751%, 53.994751%, 53.994751%)" stop-opacity="1"/>
<stop offset="0.875" stop-color="rgb(53.623962%, 53.623962%, 53.623962%)" stop-opacity="1"/>
<stop offset="0.882813" stop-color="rgb(53.253174%, 53.253174%, 53.253174%)" stop-opacity="1"/>
<stop offset="0.890625" stop-color="rgb(52.882385%, 52.882385%, 52.882385%)" stop-opacity="1"/>
<stop offset="0.898438" stop-color="rgb(52.510071%, 52.510071%, 52.510071%)" stop-opacity="1"/>
<stop offset="0.90625" stop-color="rgb(52.139282%, 52.139282%, 52.139282%)" stop-opacity="1"/>
<stop offset="0.914063" stop-color="rgb(51.768494%, 51.768494%, 51.768494%)" stop-opacity="1"/>
<stop offset="0.921875" stop-color="rgb(51.397705%, 51.397705%, 51.397705%)" stop-opacity="1"/>
<stop offset="0.929687" stop-color="rgb(51.026917%, 51.026917%, 51.026917%)" stop-opacity="1"/>
<stop offset="0.9375" stop-color="rgb(50.654602%, 50.654602%, 50.654602%)" stop-opacity="1"/>
<stop offset="0.945312" stop-color="rgb(50.283813%, 50.283813%, 50.283813%)" stop-opacity="1"/>
<stop offset="0.953125" stop-color="rgb(49.913025%, 49.913025%, 49.913025%)" stop-opacity="1"/>
<stop offset="0.960937" stop-color="rgb(49.542236%, 49.542236%, 49.542236%)" stop-opacity="1"/>
<stop offset="0.96875" stop-color="rgb(49.171448%, 49.171448%, 49.171448%)" stop-opacity="1"/>
<stop offset="0.976562" stop-color="rgb(48.800659%, 48.800659%, 48.800659%)" stop-opacity="1"/>
<stop offset="0.984375" stop-color="rgb(48.428345%, 48.428345%, 48.428345%)" stop-opacity="1"/>
<stop offset="0.992188" stop-color="rgb(48.057556%, 48.057556%, 48.057556%)" stop-opacity="1"/>
<stop offset="1" stop-color="rgb(47.686768%, 47.686768%, 47.686768%)" stop-opacity="1"/>
</linearGradient>
<clipPath id="clip-3">
<path clip-rule="nonzero" d="M 11 0 L 68 0 L 68 18 L 11 18 Z M 11 0 "/>
</clipPath>
<clipPath id="clip-4">
<path clip-rule="nonzero" d="M 67.113281 9.476562 C 67.113281 4.519531 54.742188 0.5 39.476562 0.5 C 24.210938 0.5 11.839844 4.519531 11.839844 9.476562 C 11.839844 14.433594 24.210938 18.453125 39.476562 18.453125 C 54.742188 18.453125 67.113281 14.433594 67.113281 9.476562 Z M 67.113281 9.476562 "/>
</clipPath>
<linearGradient id="linear-pattern-1" gradientUnits="userSpaceOnUse" x1="0" y1="25.002952" x2="0" y2="74.997048" gradientTransform="matrix(1.10565, 0, 0, -0.3591, -15.8065, 27.43068)">
<stop offset="0" stop-color="rgb(94.999695%, 94.999695%, 94.999695%)" stop-opacity="1"/>
<stop offset="0.125" stop-color="rgb(95.155334%, 95.155334%, 95.155334%)" stop-opacity="1"/>
<stop offset="0.25" stop-color="rgb(95.46814%, 95.46814%, 95.46814%)" stop-opacity="1"/>
<stop offset="0.375" stop-color="rgb(95.779419%, 95.779419%, 95.779419%)" stop-opacity="1"/>
<stop offset="0.5" stop-color="rgb(96.092224%, 96.092224%, 96.092224%)" stop-opacity="1"/>
<stop offset="0.625" stop-color="rgb(96.405029%, 96.405029%, 96.405029%)" stop-opacity="1"/>
<stop offset="0.75" stop-color="rgb(96.716309%, 96.716309%, 96.716309%)" stop-opacity="1"/>
<stop offset="0.875" stop-color="rgb(97.029114%, 97.029114%, 97.029114%)" stop-opacity="1"/>
<stop offset="1" stop-color="rgb(97.341919%, 97.341919%, 97.341919%)" stop-opacity="1"/>
</linearGradient>
<clipPath id="clip-5">
<path clip-rule="nonzero" d="M 11 9 L 68 9 L 68 48 L 11 48 Z M 11 9 "/>
</clipPath>
<clipPath id="clip-6">
<path clip-rule="nonzero" d="M 11.128906 9.949219 L 11.128906 38.292969 C 11.128906 43.511719 23.820312 47.742188 39.476562 47.742188 C 55.132812 47.742188 67.824219 43.511719 67.824219 38.292969 L 67.824219 9.949219 C 67.824219 15.167969 55.132812 19.398438 39.476562 19.398438 C 23.820312 19.398438 11.128906 15.167969 11.128906 9.949219 "/>
</clipPath>
<linearGradient id="linear-pattern-2" gradientUnits="userSpaceOnUse" x1="0" y1="25.002822" x2="0" y2="74.997178" gradientTransform="matrix(0, -0.756, -1.134, 0, 96.176, 66.64578)">
<stop offset="0" stop-color="rgb(96.24939%, 96.24939%, 96.24939%)" stop-opacity="1"/>
<stop offset="0.125" stop-color="rgb(96.092224%, 96.092224%, 96.092224%)" stop-opacity="1"/>
<stop offset="0.25" stop-color="rgb(95.779419%, 95.779419%, 95.779419%)" stop-opacity="1"/>
<stop offset="0.375" stop-color="rgb(95.466614%, 95.466614%, 95.466614%)" stop-opacity="1"/>
<stop offset="0.5" stop-color="rgb(95.155334%, 95.155334%, 95.155334%)" stop-opacity="1"/>
<stop offset="0.625" stop-color="rgb(95.155334%, 95.155334%, 95.155334%)" stop-opacity="1"/>
<stop offset="0.75" stop-color="rgb(95.466614%, 95.466614%, 95.466614%)" stop-opacity="1"/>
<stop offset="0.875" stop-color="rgb(95.779419%, 95.779419%, 95.779419%)" stop-opacity="1"/>
<stop offset="1" stop-color="rgb(96.092224%, 96.092224%, 96.092224%)" stop-opacity="1"/>
</linearGradient>
</defs>
<path fill-rule="nonzero" fill="rgb(0%, 0%, 0%)" fill-opacity="0.01666" d="M 67.824219 41.128906 C 67.824219 35.910156 55.132812 31.679688 39.476562 31.679688 C 23.820312 31.679688 11.128906 35.910156 11.128906 41.128906 C 11.128906 46.347656 23.820312 50.578125 39.476562 50.578125 C 55.132812 50.578125 67.824219 46.347656 67.824219 41.128906 Z M 67.824219 41.128906 "/>
<path fill-rule="nonzero" fill="rgb(0%, 0%, 0%)" fill-opacity="0.01666" d="M 68.53125 41.128906 C 68.53125 35.648438 55.523438 31.207031 39.476562 31.207031 C 23.429688 31.207031 10.421875 35.648438 10.421875 41.128906 C 10.421875 46.609375 23.429688 51.050781 39.476562 51.050781 C 55.523438 51.050781 68.53125 46.609375 68.53125 41.128906 Z M 68.53125 41.128906 "/>
<path fill-rule="nonzero" fill="rgb(0%, 0%, 0%)" fill-opacity="0.01666" d="M 69.238281 41.128906 C 69.238281 35.390625 55.914062 30.734375 39.476562 30.734375 C 23.039062 30.734375 9.710938 35.390625 9.710938 41.128906 C 9.710938 46.871094 23.039062 51.523438 39.476562 51.523438 C 55.914062 51.523438 69.238281 46.871094 69.238281 41.128906 Z M 69.238281 41.128906 "/>
<path fill-rule="nonzero" fill="rgb(0%, 0%, 0%)" fill-opacity="0.01666" d="M 69.949219 41.128906 C 69.949219 35.128906 56.304688 30.265625 39.476562 30.265625 C 22.644531 30.265625 9.003906 35.128906 9.003906 41.128906 C 9.003906 47.128906 22.644531 51.996094 39.476562 51.996094 C 56.304688 51.996094 69.949219 47.128906 69.949219 41.128906 Z M 69.949219 41.128906 "/>
<path fill-rule="nonzero" fill="rgb(0%, 0%, 0%)" fill-opacity="0.01666" d="M 70.65625 41.128906 C 70.65625 34.867188 56.695312 29.792969 39.476562 29.792969 C 22.253906 29.792969 8.292969 34.867188 8.292969 41.128906 C 8.292969 47.390625 22.253906 52.46875 39.476562 52.46875 C 56.695312 52.46875 70.65625 47.390625 70.65625 41.128906 Z M 70.65625 41.128906 "/>
<path fill-rule="nonzero" fill="rgb(0%, 0%, 0%)" fill-opacity="0.01666" d="M 71.367188 41.128906 C 71.367188 34.605469 57.089844 29.320312 39.476562 29.320312 C 21.863281 29.320312 7.585938 34.605469 7.585938 41.128906 C 7.585938 47.652344 21.863281 52.941406 39.476562 52.941406 C 57.089844 52.941406 71.367188 47.652344 71.367188 41.128906 Z M 71.367188 41.128906 "/>
<path fill-rule="nonzero" fill="rgb(0%, 0%, 0%)" fill-opacity="0.01666" d="M 72.074219 41.128906 C 72.074219 34.347656 57.480469 28.847656 39.476562 28.847656 C 21.472656 28.847656 6.878906 34.347656 6.878906 41.128906 C 6.878906 47.914062 21.472656 53.414062 39.476562 53.414062 C 57.480469 53.414062 72.074219 47.914062 72.074219 41.128906 Z M 72.074219 41.128906 "/>
<path fill-rule="nonzero" fill="rgb(0%, 0%, 0%)" fill-opacity="0.01666" d="M 72.78125 41.128906 C 72.78125 34.085938 57.871094 28.375 39.476562 28.375 C 21.082031 28.375 6.167969 34.085938 6.167969 41.128906 C 6.167969 48.175781 21.082031 53.886719 39.476562 53.886719 C 57.871094 53.886719 72.78125 48.175781 72.78125 41.128906 Z M 72.78125 41.128906 "/>
<path fill-rule="nonzero" fill="rgb(0%, 0%, 0%)" fill-opacity="0.01666" d="M 73.492188 41.128906 C 73.492188 33.824219 58.261719 27.902344 39.476562 27.902344 C 20.6875 27.902344 5.460938 33.824219 5.460938 41.128906 C 5.460938 48.433594 20.6875 54.359375 39.476562 54.359375 C 58.261719 54.359375 73.492188 48.433594 73.492188 41.128906 Z M 73.492188 41.128906 "/>
<path fill-rule="nonzero" fill="rgb(0%, 0%, 0%)" fill-opacity="0.01666" d="M 74.199219 41.128906 C 74.199219 33.5625 58.652344 27.429688 39.476562 27.429688 C 20.296875 27.429688 4.75 33.5625 4.75 41.128906 C 4.75 48.695312 20.296875 54.832031 39.476562 54.832031 C 58.652344 54.832031 74.199219 48.695312 74.199219 41.128906 Z M 74.199219 41.128906 "/>
<path fill-rule="nonzero" fill="rgb(0%, 0%, 0%)" fill-opacity="0.01666" d="M 74.910156 41.128906 C 74.910156 33.300781 59.046875 26.957031 39.476562 26.957031 C 19.90625 26.957031 4.042969 33.300781 4.042969 41.128906 C 4.042969 48.957031 19.90625 55.300781 39.476562 55.300781 C 59.046875 55.300781 74.910156 48.957031 74.910156 41.128906 Z M 74.910156 41.128906 "/>
<path fill-rule="nonzero" fill="rgb(0%, 0%, 0%)" fill-opacity="0.01666" d="M 75.617188 41.128906 C 75.617188 33.042969 59.4375 26.484375 39.476562 26.484375 C 19.515625 26.484375 3.335938 33.042969 3.335938 41.128906 C 3.335938 49.21875 19.515625 55.773438 39.476562 55.773438 C 59.4375 55.773438 75.617188 49.21875 75.617188 41.128906 Z M 75.617188 41.128906 "/>
<path fill-rule="nonzero" fill="rgb(0%, 0%, 0%)" fill-opacity="0.01666" d="M 76.328125 41.128906 C 76.328125 32.78125 59.828125 26.011719 39.476562 26.011719 C 19.125 26.011719 2.625 32.78125 2.625 41.128906 C 2.625 49.480469 19.125 56.246094 39.476562 56.246094 C 59.828125 56.246094 76.328125 49.480469 76.328125 41.128906 Z M 76.328125 41.128906 "/>
<path fill-rule="nonzero" fill="rgb(0%, 0%, 0%)" fill-opacity="0.01666" d="M 77.035156 41.128906 C 77.035156 32.519531 60.21875 25.539062 39.476562 25.539062 C 18.730469 25.539062 1.917969 32.519531 1.917969 41.128906 C 1.917969 49.738281 18.730469 56.71875 39.476562 56.71875 C 60.21875 56.71875 77.035156 49.738281 77.035156 41.128906 Z M 77.035156 41.128906 "/>
<path fill-rule="nonzero" fill="rgb(0%, 0%, 0%)" fill-opacity="0.01666" d="M 77.742188 41.128906 C 77.742188 32.257812 60.609375 25.066406 39.476562 25.066406 C 18.339844 25.066406 1.207031 32.257812 1.207031 41.128906 C 1.207031 50 18.339844 57.191406 39.476562 57.191406 C 60.609375 57.191406 77.742188 50 77.742188 41.128906 Z M 77.742188 41.128906 "/>
<g clip-path="url(#clip-0)">
<path fill-rule="nonzero" fill="rgb(0%, 0%, 0%)" fill-opacity="0.01666" d="M 78.453125 41.128906 C 78.453125 31.996094 61.003906 24.59375 39.476562 24.59375 C 17.949219 24.59375 0.5 31.996094 0.5 41.128906 C 0.5 50.261719 17.949219 57.664062 39.476562 57.664062 C 61.003906 57.664062 78.453125 50.261719 78.453125 41.128906 Z M 78.453125 41.128906 "/>
</g>
<path fill-rule="nonzero" fill="rgb(97.497559%, 97.497559%, 97.497559%)" fill-opacity="1" d="M 67.824219 9.949219 C 67.824219 4.730469 55.132812 0.5 39.476562 0.5 C 23.820312 0.5 11.128906 4.730469 11.128906 9.949219 C 11.128906 15.167969 23.820312 19.398438 39.476562 19.398438 C 55.132812 19.398438 67.824219 15.167969 67.824219 9.949219 Z M 67.824219 9.949219 "/>
<g clip-path="url(#clip-1)">
<g clip-path="url(#clip-2)">
<path fill-rule="nonzero" fill="url(#linear-pattern-0)" d="M 67.113281 48.6875 L 11.839844 48.6875 L 11.839844 39.710938 L 67.113281 39.710938 Z M 67.113281 48.6875 "/>
</g>
</g>
<g clip-path="url(#clip-3)">
<g clip-path="url(#clip-4)">
<path fill-rule="nonzero" fill="url(#linear-pattern-1)" d="M 11.839844 18.453125 L 11.839844 0.5 L 67.113281 0.5 L 67.113281 18.453125 Z M 11.839844 18.453125 "/>
</g>
</g>
<g clip-path="url(#clip-5)">
<g clip-path="url(#clip-6)">
<path fill-rule="nonzero" fill="url(#linear-pattern-2)" d="M 67.824219 47.742188 L 11.128906 47.742188 L 11.128906 9.949219 L 67.824219 9.949219 Z M 67.824219 47.742188 "/>
</g>
</g>
<path fill-rule="nonzero" fill="rgb(0%, 0%, 0%)" fill-opacity="0.01999" d="M 23.175781 17.742188 L 32.140625 19.074219 L 32.140625 47.421875 C 22.359375 46.546875 14.714844 44 12.09375 40.742188 L 12.09375 12.394531 Z M 23.175781 17.742188 "/>
<path fill-rule="nonzero" fill="rgb(0%, 0%, 0%)" fill-opacity="0.01999" d="M 23.175781 17.742188 L 31.1875 18.984375 L 31.1875 47.332031 C 22.175781 46.414062 15.121094 44.0625 12.367188 41.058594 L 12.367188 12.710938 Z M 23.175781 17.742188 "/>
<path fill-rule="nonzero" fill="rgb(0%, 0%, 0%)" fill-opacity="0.01999" d="M 23.175781 17.742188 L 30.246094 18.882812 L 30.246094 47.230469 C 21.996094 46.28125 15.515625 44.121094 12.671875 41.371094 L 12.671875 13.023438 Z M 23.175781 17.742188 "/>
<path fill-rule="nonzero" fill="rgb(0%, 0%, 0%)" fill-opacity="0.01999" d="M 23.175781 17.742188 L 29.316406 18.769531 L 29.316406 47.117188 C 21.820312 46.15625 15.890625 44.179688 13.011719 41.679688 L 13.011719 13.335938 Z M 23.175781 17.742188 "/>
<path fill-rule="nonzero" fill="rgb(0%, 0%, 0%)" fill-opacity="0.01999" d="M 23.175781 17.742188 L 28.398438 18.644531 L 28.398438 46.992188 C 21.636719 46.035156 16.253906 44.242188 13.382812 41.988281 L 13.382812 13.640625 Z M 23.175781 17.742188 "/>
<path fill-rule="nonzero" fill="rgb(0%, 0%, 0%)" fill-opacity="0.01999" d="M 23.175781 17.742188 L 27.496094 18.511719 L 27.496094 46.859375 C 21.457031 45.917969 16.601562 44.300781 13.785156 42.289062 L 13.785156 13.941406 Z M 23.175781 17.742188 "/>
<path fill-rule="nonzero" fill="rgb(0%, 0%, 0%)" fill-opacity="0.01999" d="M 23.175781 17.742188 L 26.605469 18.367188 L 26.605469 46.714844 C 21.273438 45.808594 16.9375 44.363281 14.21875 42.585938 L 14.21875 14.238281 Z M 23.175781 17.742188 "/>
<path fill-rule="nonzero" fill="rgb(0%, 0%, 0%)" fill-opacity="0.01999" d="M 23.175781 17.742188 L 25.734375 18.210938 L 25.734375 46.558594 C 21.089844 45.699219 17.257812 44.425781 14.683594 42.875 L 14.683594 14.527344 Z M 23.175781 17.742188 "/>
<path fill-rule="nonzero" fill="rgb(0%, 0%, 0%)" fill-opacity="0.01999" d="M 23.175781 17.742188 L 24.875 18.046875 L 24.875 46.394531 C 20.898438 45.597656 17.566406 44.488281 15.179688 43.160156 L 15.179688 14.816406 Z M 23.175781 17.742188 "/>
<path fill-rule="nonzero" fill="rgb(0%, 0%, 0%)" fill-opacity="0.01999" d="M 23.175781 17.742188 L 24.035156 17.871094 L 24.035156 46.21875 C 20.707031 45.5 17.863281 44.550781 15.703125 43.441406 L 15.703125 15.09375 Z M 23.175781 17.742188 "/>
<path fill-rule="nonzero" fill="rgb(0%, 0%, 0%)" fill-opacity="0.01999" d="M 23.175781 17.742188 L 23.21875 17.6875 L 23.21875 46.035156 C 20.507812 45.402344 18.152344 44.617188 16.253906 43.714844 L 16.253906 15.367188 Z M 23.175781 17.742188 "/>
<path fill-rule="nonzero" fill="rgb(0%, 0%, 0%)" fill-opacity="0.01999" d="M 23.175781 17.742188 L 22.417969 17.492188 L 22.417969 45.839844 C 20.304688 45.3125 18.425781 44.683594 16.835938 43.980469 L 16.835938 15.632812 Z M 23.175781 17.742188 "/>
<path fill-rule="nonzero" fill="rgb(0%, 0%, 0%)" fill-opacity="0.01999" d="M 23.175781 17.742188 L 21.636719 17.289062 L 21.636719 45.636719 C 20.097656 45.222656 18.691406 44.753906 17.445312 44.242188 L 17.445312 15.894531 Z M 23.175781 17.742188 "/>
<path fill-rule="nonzero" fill="rgb(0%, 0%, 0%)" fill-opacity="0.01999" d="M 23.175781 17.742188 L 20.878906 17.078125 L 20.878906 45.425781 C 19.882812 45.136719 18.949219 44.824219 18.082031 44.492188 L 18.082031 16.148438 Z M 23.175781 17.742188 "/>
<path fill-rule="nonzero" fill="rgb(0%, 0%, 0%)" fill-opacity="0.01999" d="M 23.175781 17.742188 L 20.144531 16.859375 L 20.144531 45.203125 C 19.660156 45.054688 19.195312 44.898438 18.746094 44.738281 L 18.746094 16.390625 Z M 23.175781 17.742188 "/>
<path fill-rule="nonzero" fill="rgb(0%, 0%, 0%)" fill-opacity="0.01999" d="M 23.175781 17.742188 L 19.433594 16.628906 L 19.433594 44.976562 L 19.433594 16.628906 Z M 23.175781 17.742188 "/>
<path fill-rule="nonzero" fill="rgb(0%, 0%, 0%)" fill-opacity="0.01999" d="M 55.773438 17.742188 L 66.855469 12.394531 L 66.855469 40.738281 C 64.234375 44 56.59375 46.546875 46.8125 47.421875 L 46.8125 19.074219 Z M 55.773438 17.742188 "/>
<path fill-rule="nonzero" fill="rgb(0%, 0%, 0%)" fill-opacity="0.01999" d="M 55.773438 17.742188 L 66.585938 12.710938 L 66.585938 41.058594 C 63.828125 44.0625 56.773438 46.414062 47.765625 47.332031 L 47.765625 18.984375 Z M 55.773438 17.742188 "/>
<path fill-rule="nonzero" fill="rgb(0%, 0%, 0%)" fill-opacity="0.01999" d="M 55.773438 17.742188 L 66.277344 13.023438 L 66.277344 41.371094 C 63.4375 44.121094 56.953125 46.28125 48.703125 47.230469 L 48.703125 18.882812 Z M 55.773438 17.742188 "/>
<path fill-rule="nonzero" fill="rgb(0%, 0%, 0%)" fill-opacity="0.01999" d="M 55.773438 17.742188 L 65.941406 13.335938 L 65.941406 41.679688 C 63.0625 44.179688 57.132812 46.15625 49.632812 47.117188 L 49.632812 18.769531 Z M 55.773438 17.742188 "/>
<path fill-rule="nonzero" fill="rgb(0%, 0%, 0%)" fill-opacity="0.01999" d="M 55.773438 17.742188 L 65.570312 13.640625 L 65.570312 41.988281 C 62.699219 44.242188 57.3125 46.035156 50.550781 46.992188 L 50.550781 18.644531 Z M 55.773438 17.742188 "/>
<path fill-rule="nonzero" fill="rgb(0%, 0%, 0%)" fill-opacity="0.01999" d="M 55.773438 17.742188 L 65.167969 13.941406 L 65.167969 42.289062 C 62.351562 44.300781 57.496094 45.917969 51.457031 46.859375 L 51.457031 18.511719 Z M 55.773438 17.742188 "/>
<path fill-rule="nonzero" fill="rgb(0%, 0%, 0%)" fill-opacity="0.01999" d="M 55.773438 17.742188 L 64.734375 14.238281 L 64.734375 42.585938 C 62.015625 44.363281 57.679688 45.808594 52.34375 46.714844 L 52.34375 18.367188 Z M 55.773438 17.742188 "/>
<path fill-rule="nonzero" fill="rgb(0%, 0%, 0%)" fill-opacity="0.01999" d="M 55.773438 17.742188 L 64.269531 14.527344 L 64.269531 42.875 C 61.695312 44.425781 57.863281 45.699219 53.21875 46.558594 L 53.21875 18.210938 Z M 55.773438 17.742188 "/>
<path fill-rule="nonzero" fill="rgb(0%, 0%, 0%)" fill-opacity="0.01999" d="M 55.773438 17.742188 L 63.773438 14.816406 L 63.773438 43.160156 C 61.382812 44.488281 58.050781 45.597656 54.074219 46.394531 L 54.074219 18.046875 Z M 55.773438 17.742188 "/>
<path fill-rule="nonzero" fill="rgb(0%, 0%, 0%)" fill-opacity="0.01999" d="M 55.773438 17.742188 L 63.25 15.09375 L 63.25 43.441406 C 61.085938 44.550781 58.246094 45.5 54.914062 46.21875 L 54.914062 17.871094 Z M 55.773438 17.742188 "/>
<path fill-rule="nonzero" fill="rgb(0%, 0%, 0%)" fill-opacity="0.01999" d="M 55.773438 17.742188 L 62.695312 15.367188 L 62.695312 43.714844 C 60.800781 44.617188 58.441406 45.402344 55.734375 46.035156 L 55.734375 17.6875 Z M 55.773438 17.742188 "/>
<path fill-rule="nonzero" fill="rgb(0%, 0%, 0%)" fill-opacity="0.01999" d="M 55.773438 17.742188 L 62.113281 15.632812 L 62.113281 43.980469 C 60.523438 44.683594 58.644531 45.3125 56.535156 45.839844 L 56.535156 17.492188 Z M 55.773438 17.742188 "/>
<path fill-rule="nonzero" fill="rgb(0%, 0%, 0%)" fill-opacity="0.01999" d="M 55.773438 17.742188 L 61.503906 15.894531 L 61.503906 44.242188 C 60.257812 44.753906 58.855469 45.222656 57.316406 45.636719 L 57.316406 17.289062 Z M 55.773438 17.742188 "/>
<path fill-rule="nonzero" fill="rgb(0%, 0%, 0%)" fill-opacity="0.01999" d="M 55.773438 17.742188 L 60.871094 16.148438 L 60.871094 44.492188 C 60.003906 44.824219 59.070312 45.136719 58.074219 45.425781 L 58.074219 17.078125 Z M 55.773438 17.742188 "/>
<path fill-rule="nonzero" fill="rgb(0%, 0%, 0%)" fill-opacity="0.01999" d="M 55.773438 17.742188 L 60.207031 16.390625 L 60.207031 44.738281 C 59.757812 44.898438 59.289062 45.054688 58.808594 45.203125 L 58.808594 16.859375 Z M 55.773438 17.742188 "/>
<path fill-rule="nonzero" fill="rgb(0%, 0%, 0%)" fill-opacity="0.01999" d="M 55.773438 17.742188 L 59.519531 16.628906 L 59.519531 44.976562 L 59.519531 16.628906 Z M 55.773438 17.742188 "/>
</svg>
