<?xml version="1.0" encoding="UTF-8"?>
<svg xmlns="http://www.w3.org/2000/svg" xmlns:xlink="http://www.w3.org/1999/xlink" width="78.953" height="58.165" viewBox="0 0 78.953 58.165">
<defs>
<clipPath id="clip-0">
<path clip-rule="nonzero" d="M 0 24 L 78.953125 24 L 78.953125 58 L 0 58 Z M 0 24 "/>
</clipPath>
<clipPath id="clip-1">
<path clip-rule="nonzero" d="M 11 39 L 68 39 L 68 49 L 11 49 Z M 11 39 "/>
</clipPath>
<clipPath id="clip-2">
<path clip-rule="nonzero" d="M 11.839844 39.710938 C 11.839844 44.667969 24.210938 48.6875 39.476562 48.6875 C 54.742188 48.6875 67.113281 44.667969 67.113281 39.710938 Z M 11.839844 39.710938 "/>
</clipPath>
<linearGradient id="linear-pattern-0" gradientUnits="userSpaceOnUse" x1="0" y1="25.002858" x2="0" y2="74.997142" gradientTransform="matrix(0, -0.17955, -1.10565, 0, 94.7585, 53.17794)">
<stop offset="0" stop-color="rgb(35.00061%, 37.501526%, 35.501099%)" stop-opacity="1"/>
<stop offset="0.0078125" stop-color="rgb(35.136414%, 37.64801%, 35.639954%)" stop-opacity="1"/>
<stop offset="0.015625" stop-color="rgb(35.409546%, 37.940979%, 35.916138%)" stop-opacity="1"/>
<stop offset="0.0234375" stop-color="rgb(35.682678%, 38.233948%, 36.193848%)" stop-opacity="1"/>
<stop offset="0.03125" stop-color="rgb(35.955811%, 38.526917%, 36.471558%)" stop-opacity="1"/>
<stop offset="0.0390625" stop-color="rgb(36.230469%, 38.819885%, 36.749268%)" stop-opacity="1"/>
<stop offset="0.046875" stop-color="rgb(36.503601%, 39.112854%, 37.025452%)" stop-opacity="1"/>
<stop offset="0.0546875" stop-color="rgb(36.776733%, 39.405823%, 37.303162%)" stop-opacity="1"/>
<stop offset="0.0625" stop-color="rgb(37.049866%, 39.698792%, 37.580872%)" stop-opacity="1"/>
<stop offset="0.0703125" stop-color="rgb(37.322998%, 39.99176%, 37.858582%)" stop-opacity="1"/>
<stop offset="0.078125" stop-color="rgb(37.59613%, 40.284729%, 38.134766%)" stop-opacity="1"/>
<stop offset="0.0859375" stop-color="rgb(37.870789%, 40.576172%, 38.412476%)" stop-opacity="1"/>
<stop offset="0.09375" stop-color="rgb(38.143921%, 40.869141%, 38.690186%)" stop-opacity="1"/>
<stop offset="0.101562" stop-color="rgb(38.417053%, 41.162109%, 38.967896%)" stop-opacity="1"/>
<stop offset="0.109375" stop-color="rgb(38.690186%, 41.455078%, 39.24408%)" stop-opacity="1"/>
<stop offset="0.117187" stop-color="rgb(38.963318%, 41.748047%, 39.52179%)" stop-opacity="1"/>
<stop offset="0.125" stop-color="rgb(39.237976%, 42.041016%, 39.7995%)" stop-opacity="1"/>
<stop offset="0.132812" stop-color="rgb(39.511108%, 42.333984%, 40.075684%)" stop-opacity="1"/>
<stop offset="0.140625" stop-color="rgb(39.784241%, 42.626953%, 40.353394%)" stop-opacity="1"/>
<stop offset="0.148438" stop-color="rgb(40.057373%, 42.919922%, 40.631104%)" stop-opacity="1"/>
<stop offset="0.15625" stop-color="rgb(40.330505%, 43.212891%, 40.908813%)" stop-opacity="1"/>
<stop offset="0.164062" stop-color="rgb(40.605164%, 43.505859%, 41.184998%)" stop-opacity="1"/>
<stop offset="0.171875" stop-color="rgb(40.878296%, 43.798828%, 41.462708%)" stop-opacity="1"/>
<stop offset="0.179688" stop-color="rgb(41.151428%, 44.091797%, 41.740417%)" stop-opacity="1"/>
<stop offset="0.1875" stop-color="rgb(41.424561%, 44.384766%, 42.018127%)" stop-opacity="1"/>
<stop offset="0.195312" stop-color="rgb(41.697693%, 44.677734%, 42.294312%)" stop-opacity="1"/>
<stop offset="0.203125" stop-color="rgb(41.970825%, 44.970703%, 42.572021%)" stop-opacity="1"/>
<stop offset="0.210938" stop-color="rgb(42.245483%, 45.263672%, 42.849731%)" stop-opacity="1"/>
<stop offset="0.21875" stop-color="rgb(42.518616%, 45.556641%, 43.127441%)" stop-opacity="1"/>
<stop offset="0.226562" stop-color="rgb(42.791748%, 45.849609%, 43.403625%)" stop-opacity="1"/>
<stop offset="0.234375" stop-color="rgb(43.06488%, 46.142578%, 43.681335%)" stop-opacity="1"/>
<stop offset="0.242188" stop-color="rgb(43.338013%, 46.435547%, 43.959045%)" stop-opacity="1"/>
<stop offset="0.25" stop-color="rgb(43.612671%, 46.728516%, 44.236755%)" stop-opacity="1"/>
<stop offset="0.257812" stop-color="rgb(43.885803%, 47.021484%, 44.512939%)" stop-opacity="1"/>
<stop offset="0.265625" stop-color="rgb(44.158936%, 47.314453%, 44.790649%)" stop-opacity="1"/>
<stop offset="0.273438" stop-color="rgb(44.432068%, 47.607422%, 45.068359%)" stop-opacity="1"/>
<stop offset="0.28125" stop-color="rgb(44.7052%, 47.900391%, 45.344543%)" stop-opacity="1"/>
<stop offset="0.289062" stop-color="rgb(44.979858%, 48.193359%, 45.622253%)" stop-opacity="1"/>
<stop offset="0.296875" stop-color="rgb(45.252991%, 48.486328%, 45.899963%)" stop-opacity="1"/>
<stop offset="0.304688" stop-color="rgb(45.526123%, 48.779297%, 46.177673%)" stop-opacity="1"/>
<stop offset="0.3125" stop-color="rgb(45.799255%, 49.072266%, 46.453857%)" stop-opacity="1"/>
<stop offset="0.320313" stop-color="rgb(46.072388%, 49.365234%, 46.731567%)" stop-opacity="1"/>
<stop offset="0.328125" stop-color="rgb(46.34552%, 49.658203%, 47.009277%)" stop-opacity="1"/>
<stop offset="0.335938" stop-color="rgb(46.620178%, 49.951172%, 47.286987%)" stop-opacity="1"/>
<stop offset="0.34375" stop-color="rgb(46.893311%, 50.244141%, 47.563171%)" stop-opacity="1"/>
<stop offset="0.351562" stop-color="rgb(47.166443%, 50.537109%, 47.840881%)" stop-opacity="1"/>
<stop offset="0.359375" stop-color="rgb(47.439575%, 50.830078%, 48.118591%)" stop-opacity="1"/>
<stop offset="0.367188" stop-color="rgb(47.712708%, 51.123047%, 48.396301%)" stop-opacity="1"/>
<stop offset="0.375" stop-color="rgb(47.987366%, 51.416016%, 48.672485%)" stop-opacity="1"/>
<stop offset="0.382812" stop-color="rgb(48.260498%, 51.708984%, 48.950195%)" stop-opacity="1"/>
<stop offset="0.390625" stop-color="rgb(48.53363%, 52.001953%, 49.227905%)" stop-opacity="1"/>
<stop offset="0.398438" stop-color="rgb(48.806763%, 52.294922%, 49.505615%)" stop-opacity="1"/>
<stop offset="0.40625" stop-color="rgb(49.079895%, 52.586365%, 49.781799%)" stop-opacity="1"/>
<stop offset="0.414062" stop-color="rgb(49.354553%, 52.879333%, 50.059509%)" stop-opacity="1"/>
<stop offset="0.421875" stop-color="rgb(49.627686%, 53.172302%, 50.337219%)" stop-opacity="1"/>
<stop offset="0.429687" stop-color="rgb(49.900818%, 53.465271%, 50.613403%)" stop-opacity="1"/>
<stop offset="0.4375" stop-color="rgb(50.17395%, 53.75824%, 50.891113%)" stop-opacity="1"/>
<stop offset="0.445312" stop-color="rgb(50.447083%, 54.051208%, 51.168823%)" stop-opacity="1"/>
<stop offset="0.453125" stop-color="rgb(50.720215%, 54.344177%, 51.446533%)" stop-opacity="1"/>
<stop offset="0.460937" stop-color="rgb(50.994873%, 54.637146%, 51.722717%)" stop-opacity="1"/>
<stop offset="0.46875" stop-color="rgb(51.268005%, 54.930115%, 52.000427%)" stop-opacity="1"/>
<stop offset="0.476562" stop-color="rgb(51.541138%, 55.223083%, 52.278137%)" stop-opacity="1"/>
<stop offset="0.484375" stop-color="rgb(51.81427%, 55.516052%, 52.555847%)" stop-opacity="1"/>
<stop offset="0.492187" stop-color="rgb(52.087402%, 55.809021%, 52.832031%)" stop-opacity="1"/>
<stop offset="0.5" stop-color="rgb(52.362061%, 56.10199%, 53.109741%)" stop-opacity="1"/>
<stop offset="0.507812" stop-color="rgb(52.362061%, 56.10199%, 53.109741%)" stop-opacity="1"/>
<stop offset="0.515625" stop-color="rgb(52.088928%, 55.810547%, 52.833557%)" stop-opacity="1"/>
<stop offset="0.523437" stop-color="rgb(51.815796%, 55.517578%, 52.555847%)" stop-opacity="1"/>
<stop offset="0.53125" stop-color="rgb(51.542664%, 55.224609%, 52.279663%)" stop-opacity="1"/>
<stop offset="0.539062" stop-color="rgb(51.268005%, 54.931641%, 52.001953%)" stop-opacity="1"/>
<stop offset="0.546875" stop-color="rgb(50.994873%, 54.638672%, 51.724243%)" stop-opacity="1"/>
<stop offset="0.554688" stop-color="rgb(50.721741%, 54.345703%, 51.446533%)" stop-opacity="1"/>
<stop offset="0.5625" stop-color="rgb(50.448608%, 54.052734%, 51.170349%)" stop-opacity="1"/>
<stop offset="0.570312" stop-color="rgb(50.175476%, 53.759766%, 50.892639%)" stop-opacity="1"/>
<stop offset="0.578125" stop-color="rgb(49.902344%, 53.466797%, 50.614929%)" stop-opacity="1"/>
<stop offset="0.585938" stop-color="rgb(49.627686%, 53.173828%, 50.337219%)" stop-opacity="1"/>
<stop offset="0.59375" stop-color="rgb(49.354553%, 52.880859%, 50.061035%)" stop-opacity="1"/>
<stop offset="0.601563" stop-color="rgb(49.081421%, 52.587891%, 49.783325%)" stop-opacity="1"/>
<stop offset="0.609375" stop-color="rgb(48.808289%, 52.294922%, 49.505615%)" stop-opacity="1"/>
<stop offset="0.617187" stop-color="rgb(48.535156%, 52.001953%, 49.227905%)" stop-opacity="1"/>
<stop offset="0.625" stop-color="rgb(48.260498%, 51.708984%, 48.951721%)" stop-opacity="1"/>
<stop offset="0.632813" stop-color="rgb(47.987366%, 51.416016%, 48.674011%)" stop-opacity="1"/>
<stop offset="0.640625" stop-color="rgb(47.714233%, 51.123047%, 48.396301%)" stop-opacity="1"/>
<stop offset="0.648437" stop-color="rgb(47.441101%, 50.830078%, 48.118591%)" stop-opacity="1"/>
<stop offset="0.65625" stop-color="rgb(47.167969%, 50.537109%, 47.842407%)" stop-opacity="1"/>
<stop offset="0.664062" stop-color="rgb(46.893311%, 50.244141%, 47.564697%)" stop-opacity="1"/>
<stop offset="0.671875" stop-color="rgb(46.620178%, 49.951172%, 47.286987%)" stop-opacity="1"/>
<stop offset="0.679688" stop-color="rgb(46.347046%, 49.658203%, 47.010803%)" stop-opacity="1"/>
<stop offset="0.6875" stop-color="rgb(46.073914%, 49.365234%, 46.733093%)" stop-opacity="1"/>
<stop offset="0.695312" stop-color="rgb(45.800781%, 49.072266%, 46.455383%)" stop-opacity="1"/>
<stop offset="0.703125" stop-color="rgb(45.527649%, 48.779297%, 46.177673%)" stop-opacity="1"/>
<stop offset="0.710938" stop-color="rgb(45.252991%, 48.486328%, 45.901489%)" stop-opacity="1"/>
<stop offset="0.71875" stop-color="rgb(44.979858%, 48.193359%, 45.623779%)" stop-opacity="1"/>
<stop offset="0.726563" stop-color="rgb(44.706726%, 47.900391%, 45.346069%)" stop-opacity="1"/>
<stop offset="0.734375" stop-color="rgb(44.433594%, 47.608948%, 45.068359%)" stop-opacity="1"/>
<stop offset="0.742188" stop-color="rgb(44.160461%, 47.315979%, 44.792175%)" stop-opacity="1"/>
<stop offset="0.75" stop-color="rgb(43.885803%, 47.02301%, 44.514465%)" stop-opacity="1"/>
<stop offset="0.757813" stop-color="rgb(43.612671%, 46.730042%, 44.236755%)" stop-opacity="1"/>
<stop offset="0.765625" stop-color="rgb(43.339539%, 46.437073%, 43.959045%)" stop-opacity="1"/>
<stop offset="0.773437" stop-color="rgb(43.066406%, 46.144104%, 43.682861%)" stop-opacity="1"/>
<stop offset="0.78125" stop-color="rgb(42.793274%, 45.851135%, 43.405151%)" stop-opacity="1"/>
<stop offset="0.789063" stop-color="rgb(42.518616%, 45.558167%, 43.127441%)" stop-opacity="1"/>
<stop offset="0.796875" stop-color="rgb(42.245483%, 45.265198%, 42.849731%)" stop-opacity="1"/>
<stop offset="0.804688" stop-color="rgb(41.972351%, 44.972229%, 42.573547%)" stop-opacity="1"/>
<stop offset="0.8125" stop-color="rgb(41.699219%, 44.67926%, 42.295837%)" stop-opacity="1"/>
<stop offset="0.820312" stop-color="rgb(41.426086%, 44.386292%, 42.018127%)" stop-opacity="1"/>
<stop offset="0.828125" stop-color="rgb(41.152954%, 44.093323%, 41.741943%)" stop-opacity="1"/>
<stop offset="0.835938" stop-color="rgb(40.878296%, 43.800354%, 41.464233%)" stop-opacity="1"/>
<stop offset="0.84375" stop-color="rgb(40.605164%, 43.507385%, 41.186523%)" stop-opacity="1"/>
<stop offset="0.851563" stop-color="rgb(40.332031%, 43.214417%, 40.908813%)" stop-opacity="1"/>
<stop offset="0.859375" stop-color="rgb(40.058899%, 42.921448%, 40.632629%)" stop-opacity="1"/>
<stop offset="0.867188" stop-color="rgb(39.785767%, 42.628479%, 40.354919%)" stop-opacity="1"/>
<stop offset="0.875" stop-color="rgb(39.511108%, 42.33551%, 40.077209%)" stop-opacity="1"/>
<stop offset="0.882813" stop-color="rgb(39.237976%, 42.042542%, 39.7995%)" stop-opacity="1"/>
<stop offset="0.890625" stop-color="rgb(38.964844%, 41.749573%, 39.523315%)" stop-opacity="1"/>
<stop offset="0.898438" stop-color="rgb(38.691711%, 41.456604%, 39.245605%)" stop-opacity="1"/>
<stop offset="0.90625" stop-color="rgb(38.418579%, 41.163635%, 38.967896%)" stop-opacity="1"/>
<stop offset="0.914063" stop-color="rgb(38.143921%, 40.870667%, 38.690186%)" stop-opacity="1"/>
<stop offset="0.921875" stop-color="rgb(37.870789%, 40.577698%, 38.414001%)" stop-opacity="1"/>
<stop offset="0.929687" stop-color="rgb(37.597656%, 40.284729%, 38.136292%)" stop-opacity="1"/>
<stop offset="0.9375" stop-color="rgb(37.324524%, 39.99176%, 37.858582%)" stop-opacity="1"/>
<stop offset="0.945312" stop-color="rgb(37.051392%, 39.698792%, 37.580872%)" stop-opacity="1"/>
<stop offset="0.953125" stop-color="rgb(36.778259%, 39.405823%, 37.304688%)" stop-opacity="1"/>
<stop offset="0.960937" stop-color="rgb(36.503601%, 39.112854%, 37.026978%)" stop-opacity="1"/>
<stop offset="0.96875" stop-color="rgb(36.230469%, 38.819885%, 36.749268%)" stop-opacity="1"/>
<stop offset="0.976562" stop-color="rgb(35.957336%, 38.526917%, 36.473083%)" stop-opacity="1"/>
<stop offset="0.984375" stop-color="rgb(35.684204%, 38.233948%, 36.195374%)" stop-opacity="1"/>
<stop offset="0.992188" stop-color="rgb(35.411072%, 37.940979%, 35.917664%)" stop-opacity="1"/>
<stop offset="1" stop-color="rgb(35.136414%, 37.64801%, 35.639954%)" stop-opacity="1"/>
</linearGradient>
<clipPath id="clip-3">
<path clip-rule="nonzero" d="M 11 0 L 68 0 L 68 18 L 11 18 Z M 11 0 "/>
</clipPath>
<clipPath id="clip-4">
<path clip-rule="nonzero" d="M 67.113281 9.476562 C 67.113281 4.519531 54.742188 0.5 39.476562 0.5 C 24.210938 0.5 11.839844 4.519531 11.839844 9.476562 C 11.839844 14.433594 24.210938 18.453125 39.476562 18.453125 C 54.742188 18.453125 67.113281 14.433594 67.113281 9.476562 Z M 67.113281 9.476562 "/>
</clipPath>
<linearGradient id="linear-pattern-1" gradientUnits="userSpaceOnUse" x1="0" y1="25.002952" x2="0" y2="74.997048" gradientTransform="matrix(1.10565, 0, 0, -0.3591, -15.8065, 27.43068)">
<stop offset="0" stop-color="rgb(69.999695%, 75%, 71.000671%)" stop-opacity="1"/>
<stop offset="0.015625" stop-color="rgb(70.117188%, 75.097656%, 71.113586%)" stop-opacity="1"/>
<stop offset="0.03125" stop-color="rgb(70.350647%, 75.292969%, 71.339417%)" stop-opacity="1"/>
<stop offset="0.046875" stop-color="rgb(70.585632%, 75.488281%, 71.565247%)" stop-opacity="1"/>
<stop offset="0.0625" stop-color="rgb(70.820618%, 75.683594%, 71.792603%)" stop-opacity="1"/>
<stop offset="0.078125" stop-color="rgb(71.054077%, 75.878906%, 72.018433%)" stop-opacity="1"/>
<stop offset="0.09375" stop-color="rgb(71.289062%, 76.074219%, 72.245789%)" stop-opacity="1"/>
<stop offset="0.109375" stop-color="rgb(71.522522%, 76.269531%, 72.471619%)" stop-opacity="1"/>
<stop offset="0.125" stop-color="rgb(71.757507%, 76.464844%, 72.698975%)" stop-opacity="1"/>
<stop offset="0.140625" stop-color="rgb(71.990967%, 76.660156%, 72.924805%)" stop-opacity="1"/>
<stop offset="0.15625" stop-color="rgb(72.225952%, 76.855469%, 73.152161%)" stop-opacity="1"/>
<stop offset="0.171875" stop-color="rgb(72.460938%, 77.050781%, 73.377991%)" stop-opacity="1"/>
<stop offset="0.1875" stop-color="rgb(72.694397%, 77.246094%, 73.605347%)" stop-opacity="1"/>
<stop offset="0.203125" stop-color="rgb(72.929382%, 77.441406%, 73.831177%)" stop-opacity="1"/>
<stop offset="0.21875" stop-color="rgb(73.162842%, 77.636719%, 74.058533%)" stop-opacity="1"/>
<stop offset="0.234375" stop-color="rgb(73.397827%, 77.832031%, 74.284363%)" stop-opacity="1"/>
<stop offset="0.25" stop-color="rgb(73.631287%, 78.027344%, 74.510193%)" stop-opacity="1"/>
<stop offset="0.265625" stop-color="rgb(73.866272%, 78.222656%, 74.737549%)" stop-opacity="1"/>
<stop offset="0.28125" stop-color="rgb(74.101257%, 78.417969%, 74.963379%)" stop-opacity="1"/>
<stop offset="0.296875" stop-color="rgb(74.334717%, 78.613281%, 75.190735%)" stop-opacity="1"/>
<stop offset="0.3125" stop-color="rgb(74.569702%, 78.808594%, 75.416565%)" stop-opacity="1"/>
<stop offset="0.328125" stop-color="rgb(74.803162%, 79.003906%, 75.643921%)" stop-opacity="1"/>
<stop offset="0.34375" stop-color="rgb(75.038147%, 79.199219%, 75.869751%)" stop-opacity="1"/>
<stop offset="0.359375" stop-color="rgb(75.273132%, 79.394531%, 76.097107%)" stop-opacity="1"/>
<stop offset="0.375" stop-color="rgb(75.506592%, 79.589844%, 76.322937%)" stop-opacity="1"/>
<stop offset="0.390625" stop-color="rgb(75.741577%, 79.785156%, 76.550293%)" stop-opacity="1"/>
<stop offset="0.40625" stop-color="rgb(75.975037%, 79.978943%, 76.776123%)" stop-opacity="1"/>
<stop offset="0.421875" stop-color="rgb(76.210022%, 80.174255%, 77.003479%)" stop-opacity="1"/>
<stop offset="0.4375" stop-color="rgb(76.443481%, 80.369568%, 77.229309%)" stop-opacity="1"/>
<stop offset="0.453125" stop-color="rgb(76.678467%, 80.56488%, 77.455139%)" stop-opacity="1"/>
<stop offset="0.46875" stop-color="rgb(76.913452%, 80.760193%, 77.682495%)" stop-opacity="1"/>
<stop offset="0.484375" stop-color="rgb(77.146912%, 80.955505%, 77.908325%)" stop-opacity="1"/>
<stop offset="0.5" stop-color="rgb(77.381897%, 81.150818%, 78.135681%)" stop-opacity="1"/>
<stop offset="0.515625" stop-color="rgb(77.615356%, 81.34613%, 78.361511%)" stop-opacity="1"/>
<stop offset="0.53125" stop-color="rgb(77.850342%, 81.541443%, 78.588867%)" stop-opacity="1"/>
<stop offset="0.546875" stop-color="rgb(78.083801%, 81.736755%, 78.814697%)" stop-opacity="1"/>
<stop offset="0.5625" stop-color="rgb(78.318787%, 81.932068%, 79.042053%)" stop-opacity="1"/>
<stop offset="0.578125" stop-color="rgb(78.553772%, 82.12738%, 79.267883%)" stop-opacity="1"/>
<stop offset="0.59375" stop-color="rgb(78.787231%, 82.322693%, 79.495239%)" stop-opacity="1"/>
<stop offset="0.609375" stop-color="rgb(79.022217%, 82.518005%, 79.721069%)" stop-opacity="1"/>
<stop offset="0.625" stop-color="rgb(79.255676%, 82.713318%, 79.948425%)" stop-opacity="1"/>
<stop offset="0.640625" stop-color="rgb(79.490662%, 82.90863%, 80.174255%)" stop-opacity="1"/>
<stop offset="0.65625" stop-color="rgb(79.724121%, 83.103943%, 80.400085%)" stop-opacity="1"/>
<stop offset="0.671875" stop-color="rgb(79.959106%, 83.299255%, 80.627441%)" stop-opacity="1"/>
<stop offset="0.6875" stop-color="rgb(80.192566%, 83.494568%, 80.853271%)" stop-opacity="1"/>
<stop offset="0.703125" stop-color="rgb(80.427551%, 83.68988%, 81.080627%)" stop-opacity="1"/>
<stop offset="0.71875" stop-color="rgb(80.662537%, 83.885193%, 81.306458%)" stop-opacity="1"/>
<stop offset="0.734375" stop-color="rgb(80.895996%, 84.080505%, 81.533813%)" stop-opacity="1"/>
<stop offset="0.75" stop-color="rgb(81.130981%, 84.275818%, 81.759644%)" stop-opacity="1"/>
<stop offset="0.765625" stop-color="rgb(81.364441%, 84.47113%, 81.987%)" stop-opacity="1"/>
<stop offset="0.78125" stop-color="rgb(81.599426%, 84.666443%, 82.21283%)" stop-opacity="1"/>
<stop offset="0.796875" stop-color="rgb(81.832886%, 84.861755%, 82.440186%)" stop-opacity="1"/>
<stop offset="0.8125" stop-color="rgb(82.067871%, 85.057068%, 82.666016%)" stop-opacity="1"/>
<stop offset="0.828125" stop-color="rgb(82.302856%, 85.25238%, 82.893372%)" stop-opacity="1"/>
<stop offset="0.84375" stop-color="rgb(82.536316%, 85.447693%, 83.119202%)" stop-opacity="1"/>
<stop offset="0.859375" stop-color="rgb(82.771301%, 85.643005%, 83.345032%)" stop-opacity="1"/>
<stop offset="0.875" stop-color="rgb(83.004761%, 85.838318%, 83.572388%)" stop-opacity="1"/>
<stop offset="0.890625" stop-color="rgb(83.239746%, 86.03363%, 83.798218%)" stop-opacity="1"/>
<stop offset="0.90625" stop-color="rgb(83.473206%, 86.228943%, 84.025574%)" stop-opacity="1"/>
<stop offset="0.921875" stop-color="rgb(83.708191%, 86.424255%, 84.251404%)" stop-opacity="1"/>
<stop offset="0.9375" stop-color="rgb(83.94165%, 86.619568%, 84.47876%)" stop-opacity="1"/>
<stop offset="0.953125" stop-color="rgb(84.176636%, 86.81488%, 84.70459%)" stop-opacity="1"/>
<stop offset="0.96875" stop-color="rgb(84.411621%, 87.010193%, 84.931946%)" stop-opacity="1"/>
<stop offset="0.984375" stop-color="rgb(84.645081%, 87.205505%, 85.157776%)" stop-opacity="1"/>
<stop offset="1" stop-color="rgb(84.880066%, 87.400818%, 85.385132%)" stop-opacity="1"/>
</linearGradient>
<clipPath id="clip-5">
<path clip-rule="nonzero" d="M 11 9 L 68 9 L 68 48 L 11 48 Z M 11 9 "/>
</clipPath>
<clipPath id="clip-6">
<path clip-rule="nonzero" d="M 11.128906 9.949219 L 11.128906 38.292969 C 11.128906 43.511719 23.820312 47.742188 39.476562 47.742188 C 55.132812 47.742188 67.824219 43.511719 67.824219 38.292969 L 67.824219 9.949219 C 67.824219 15.167969 55.132812 19.398438 39.476562 19.398438 C 23.820312 19.398438 11.128906 15.167969 11.128906 9.949219 "/>
</clipPath>
<linearGradient id="linear-pattern-2" gradientUnits="userSpaceOnUse" x1="0" y1="25.002822" x2="0" y2="74.997178" gradientTransform="matrix(0, -0.756, -1.134, 0, 96.176, 66.64578)">
<stop offset="0" stop-color="rgb(77.497864%, 81.248474%, 78.248596%)" stop-opacity="1"/>
<stop offset="0.015625" stop-color="rgb(77.380371%, 81.150818%, 78.134155%)" stop-opacity="1"/>
<stop offset="0.03125" stop-color="rgb(77.146912%, 80.955505%, 77.908325%)" stop-opacity="1"/>
<stop offset="0.046875" stop-color="rgb(76.911926%, 80.760193%, 77.682495%)" stop-opacity="1"/>
<stop offset="0.0625" stop-color="rgb(76.678467%, 80.56488%, 77.455139%)" stop-opacity="1"/>
<stop offset="0.078125" stop-color="rgb(76.443481%, 80.369568%, 77.229309%)" stop-opacity="1"/>
<stop offset="0.09375" stop-color="rgb(76.210022%, 80.174255%, 77.001953%)" stop-opacity="1"/>
<stop offset="0.109375" stop-color="rgb(75.975037%, 79.978943%, 76.776123%)" stop-opacity="1"/>
<stop offset="0.125" stop-color="rgb(75.740051%, 79.78363%, 76.548767%)" stop-opacity="1"/>
<stop offset="0.140625" stop-color="rgb(75.506592%, 79.588318%, 76.322937%)" stop-opacity="1"/>
<stop offset="0.15625" stop-color="rgb(75.271606%, 79.393005%, 76.095581%)" stop-opacity="1"/>
<stop offset="0.171875" stop-color="rgb(75.038147%, 79.197693%, 75.869751%)" stop-opacity="1"/>
<stop offset="0.1875" stop-color="rgb(74.803162%, 79.00238%, 75.642395%)" stop-opacity="1"/>
<stop offset="0.203125" stop-color="rgb(74.568176%, 78.807068%, 75.416565%)" stop-opacity="1"/>
<stop offset="0.21875" stop-color="rgb(74.334717%, 78.611755%, 75.189209%)" stop-opacity="1"/>
<stop offset="0.234375" stop-color="rgb(74.099731%, 78.416443%, 74.963379%)" stop-opacity="1"/>
<stop offset="0.25" stop-color="rgb(73.866272%, 78.22113%, 74.737549%)" stop-opacity="1"/>
<stop offset="0.265625" stop-color="rgb(73.631287%, 78.025818%, 74.510193%)" stop-opacity="1"/>
<stop offset="0.28125" stop-color="rgb(73.397827%, 77.830505%, 74.284363%)" stop-opacity="1"/>
<stop offset="0.296875" stop-color="rgb(73.162842%, 77.635193%, 74.057007%)" stop-opacity="1"/>
<stop offset="0.3125" stop-color="rgb(72.927856%, 77.43988%, 73.831177%)" stop-opacity="1"/>
<stop offset="0.328125" stop-color="rgb(72.694397%, 77.244568%, 73.603821%)" stop-opacity="1"/>
<stop offset="0.34375" stop-color="rgb(72.459412%, 77.049255%, 73.377991%)" stop-opacity="1"/>
<stop offset="0.359375" stop-color="rgb(72.225952%, 76.853943%, 73.150635%)" stop-opacity="1"/>
<stop offset="0.375" stop-color="rgb(71.990967%, 76.65863%, 72.924805%)" stop-opacity="1"/>
<stop offset="0.390625" stop-color="rgb(71.755981%, 76.463318%, 72.697449%)" stop-opacity="1"/>
<stop offset="0.40625" stop-color="rgb(71.522522%, 76.268005%, 72.471619%)" stop-opacity="1"/>
<stop offset="0.421875" stop-color="rgb(71.287537%, 76.074219%, 72.244263%)" stop-opacity="1"/>
<stop offset="0.4375" stop-color="rgb(71.054077%, 75.878906%, 72.018433%)" stop-opacity="1"/>
<stop offset="0.453125" stop-color="rgb(70.819092%, 75.683594%, 71.792603%)" stop-opacity="1"/>
<stop offset="0.46875" stop-color="rgb(70.585632%, 75.488281%, 71.565247%)" stop-opacity="1"/>
<stop offset="0.484375" stop-color="rgb(70.350647%, 75.292969%, 71.339417%)" stop-opacity="1"/>
<stop offset="0.5" stop-color="rgb(70.115662%, 75.097656%, 71.112061%)" stop-opacity="1"/>
<stop offset="0.515625" stop-color="rgb(70.115662%, 75.09613%, 71.112061%)" stop-opacity="1"/>
<stop offset="0.53125" stop-color="rgb(70.350647%, 75.291443%, 71.337891%)" stop-opacity="1"/>
<stop offset="0.546875" stop-color="rgb(70.584106%, 75.486755%, 71.565247%)" stop-opacity="1"/>
<stop offset="0.5625" stop-color="rgb(70.819092%, 75.682068%, 71.791077%)" stop-opacity="1"/>
<stop offset="0.578125" stop-color="rgb(71.052551%, 75.87738%, 72.018433%)" stop-opacity="1"/>
<stop offset="0.59375" stop-color="rgb(71.287537%, 76.072693%, 72.244263%)" stop-opacity="1"/>
<stop offset="0.609375" stop-color="rgb(71.522522%, 76.268005%, 72.471619%)" stop-opacity="1"/>
<stop offset="0.625" stop-color="rgb(71.755981%, 76.463318%, 72.697449%)" stop-opacity="1"/>
<stop offset="0.640625" stop-color="rgb(71.990967%, 76.65863%, 72.924805%)" stop-opacity="1"/>
<stop offset="0.65625" stop-color="rgb(72.224426%, 76.853943%, 73.150635%)" stop-opacity="1"/>
<stop offset="0.671875" stop-color="rgb(72.459412%, 77.049255%, 73.377991%)" stop-opacity="1"/>
<stop offset="0.6875" stop-color="rgb(72.694397%, 77.244568%, 73.603821%)" stop-opacity="1"/>
<stop offset="0.703125" stop-color="rgb(72.927856%, 77.43988%, 73.829651%)" stop-opacity="1"/>
<stop offset="0.71875" stop-color="rgb(73.162842%, 77.635193%, 74.057007%)" stop-opacity="1"/>
<stop offset="0.734375" stop-color="rgb(73.396301%, 77.830505%, 74.282837%)" stop-opacity="1"/>
<stop offset="0.75" stop-color="rgb(73.631287%, 78.025818%, 74.510193%)" stop-opacity="1"/>
<stop offset="0.765625" stop-color="rgb(73.864746%, 78.22113%, 74.736023%)" stop-opacity="1"/>
<stop offset="0.78125" stop-color="rgb(74.099731%, 78.416443%, 74.963379%)" stop-opacity="1"/>
<stop offset="0.796875" stop-color="rgb(74.334717%, 78.611755%, 75.189209%)" stop-opacity="1"/>
<stop offset="0.8125" stop-color="rgb(74.568176%, 78.807068%, 75.416565%)" stop-opacity="1"/>
<stop offset="0.828125" stop-color="rgb(74.803162%, 79.00238%, 75.642395%)" stop-opacity="1"/>
<stop offset="0.84375" stop-color="rgb(75.036621%, 79.197693%, 75.869751%)" stop-opacity="1"/>
<stop offset="0.859375" stop-color="rgb(75.271606%, 79.393005%, 76.095581%)" stop-opacity="1"/>
<stop offset="0.875" stop-color="rgb(75.506592%, 79.588318%, 76.322937%)" stop-opacity="1"/>
<stop offset="0.890625" stop-color="rgb(75.740051%, 79.78363%, 76.548767%)" stop-opacity="1"/>
<stop offset="0.90625" stop-color="rgb(75.975037%, 79.978943%, 76.774597%)" stop-opacity="1"/>
<stop offset="0.921875" stop-color="rgb(76.208496%, 80.174255%, 77.001953%)" stop-opacity="1"/>
<stop offset="0.9375" stop-color="rgb(76.443481%, 80.369568%, 77.227783%)" stop-opacity="1"/>
<stop offset="0.953125" stop-color="rgb(76.676941%, 80.56488%, 77.455139%)" stop-opacity="1"/>
<stop offset="0.96875" stop-color="rgb(76.911926%, 80.760193%, 77.680969%)" stop-opacity="1"/>
<stop offset="0.984375" stop-color="rgb(77.146912%, 80.955505%, 77.908325%)" stop-opacity="1"/>
<stop offset="1" stop-color="rgb(77.380371%, 81.150818%, 78.134155%)" stop-opacity="1"/>
</linearGradient>
</defs>
<path fill-rule="nonzero" fill="rgb(0%, 0%, 0%)" fill-opacity="0.01666" d="M 67.824219 41.128906 C 67.824219 35.910156 55.132812 31.679688 39.476562 31.679688 C 23.820312 31.679688 11.128906 35.910156 11.128906 41.128906 C 11.128906 46.347656 23.820312 50.578125 39.476562 50.578125 C 55.132812 50.578125 67.824219 46.347656 67.824219 41.128906 Z M 67.824219 41.128906 "/>
<path fill-rule="nonzero" fill="rgb(0%, 0%, 0%)" fill-opacity="0.01666" d="M 68.53125 41.128906 C 68.53125 35.648438 55.523438 31.207031 39.476562 31.207031 C 23.429688 31.207031 10.421875 35.648438 10.421875 41.128906 C 10.421875 46.609375 23.429688 51.050781 39.476562 51.050781 C 55.523438 51.050781 68.53125 46.609375 68.53125 41.128906 Z M 68.53125 41.128906 "/>
<path fill-rule="nonzero" fill="rgb(0%, 0%, 0%)" fill-opacity="0.01666" d="M 69.238281 41.128906 C 69.238281 35.390625 55.914062 30.734375 39.476562 30.734375 C 23.039062 30.734375 9.710938 35.390625 9.710938 41.128906 C 9.710938 46.871094 23.039062 51.523438 39.476562 51.523438 C 55.914062 51.523438 69.238281 46.871094 69.238281 41.128906 Z M 69.238281 41.128906 "/>
<path fill-rule="nonzero" fill="rgb(0%, 0%, 0%)" fill-opacity="0.01666" d="M 69.949219 41.128906 C 69.949219 35.128906 56.304688 30.265625 39.476562 30.265625 C 22.644531 30.265625 9.003906 35.128906 9.003906 41.128906 C 9.003906 47.128906 22.644531 51.996094 39.476562 51.996094 C 56.304688 51.996094 69.949219 47.128906 69.949219 41.128906 Z M 69.949219 41.128906 "/>
<path fill-rule="nonzero" fill="rgb(0%, 0%, 0%)" fill-opacity="0.01666" d="M 70.65625 41.128906 C 70.65625 34.867188 56.695312 29.792969 39.476562 29.792969 C 22.253906 29.792969 8.292969 34.867188 8.292969 41.128906 C 8.292969 47.390625 22.253906 52.46875 39.476562 52.46875 C 56.695312 52.46875 70.65625 47.390625 70.65625 41.128906 Z M 70.65625 41.128906 "/>
<path fill-rule="nonzero" fill="rgb(0%, 0%, 0%)" fill-opacity="0.01666" d="M 71.367188 41.128906 C 71.367188 34.605469 57.089844 29.320312 39.476562 29.320312 C 21.863281 29.320312 7.585938 34.605469 7.585938 41.128906 C 7.585938 47.652344 21.863281 52.941406 39.476562 52.941406 C 57.089844 52.941406 71.367188 47.652344 71.367188 41.128906 Z M 71.367188 41.128906 "/>
<path fill-rule="nonzero" fill="rgb(0%, 0%, 0%)" fill-opacity="0.01666" d="M 72.074219 41.128906 C 72.074219 34.347656 57.480469 28.847656 39.476562 28.847656 C 21.472656 28.847656 6.878906 34.347656 6.878906 41.128906 C 6.878906 47.914062 21.472656 53.414062 39.476562 53.414062 C 57.480469 53.414062 72.074219 47.914062 72.074219 41.128906 Z M 72.074219 41.128906 "/>
<path fill-rule="nonzero" fill="rgb(0%, 0%, 0%)" fill-opacity="0.01666" d="M 72.78125 41.128906 C 72.78125 34.085938 57.871094 28.375 39.476562 28.375 C 21.082031 28.375 6.167969 34.085938 6.167969 41.128906 C 6.167969 48.175781 21.082031 53.886719 39.476562 53.886719 C 57.871094 53.886719 72.78125 48.175781 72.78125 41.128906 Z M 72.78125 41.128906 "/>
<path fill-rule="nonzero" fill="rgb(0%, 0%, 0%)" fill-opacity="0.01666" d="M 73.492188 41.128906 C 73.492188 33.824219 58.261719 27.902344 39.476562 27.902344 C 20.6875 27.902344 5.460938 33.824219 5.460938 41.128906 C 5.460938 48.433594 20.6875 54.359375 39.476562 54.359375 C 58.261719 54.359375 73.492188 48.433594 73.492188 41.128906 Z M 73.492188 41.128906 "/>
<path fill-rule="nonzero" fill="rgb(0%, 0%, 0%)" fill-opacity="0.01666" d="M 74.199219 41.128906 C 74.199219 33.5625 58.652344 27.429688 39.476562 27.429688 C 20.296875 27.429688 4.75 33.5625 4.75 41.128906 C 4.75 48.695312 20.296875 54.832031 39.476562 54.832031 C 58.652344 54.832031 74.199219 48.695312 74.199219 41.128906 Z M 74.199219 41.128906 "/>
<path fill-rule="nonzero" fill="rgb(0%, 0%, 0%)" fill-opacity="0.01666" d="M 74.910156 41.128906 C 74.910156 33.300781 59.046875 26.957031 39.476562 26.957031 C 19.90625 26.957031 4.042969 33.300781 4.042969 41.128906 C 4.042969 48.957031 19.90625 55.300781 39.476562 55.300781 C 59.046875 55.300781 74.910156 48.957031 74.910156 41.128906 Z M 74.910156 41.128906 "/>
<path fill-rule="nonzero" fill="rgb(0%, 0%, 0%)" fill-opacity="0.01666" d="M 75.617188 41.128906 C 75.617188 33.042969 59.4375 26.484375 39.476562 26.484375 C 19.515625 26.484375 3.335938 33.042969 3.335938 41.128906 C 3.335938 49.21875 19.515625 55.773438 39.476562 55.773438 C 59.4375 55.773438 75.617188 49.21875 75.617188 41.128906 Z M 75.617188 41.128906 "/>
<path fill-rule="nonzero" fill="rgb(0%, 0%, 0%)" fill-opacity="0.01666" d="M 76.328125 41.128906 C 76.328125 32.78125 59.828125 26.011719 39.476562 26.011719 C 19.125 26.011719 2.625 32.78125 2.625 41.128906 C 2.625 49.480469 19.125 56.246094 39.476562 56.246094 C 59.828125 56.246094 76.328125 49.480469 76.328125 41.128906 Z M 76.328125 41.128906 "/>
<path fill-rule="nonzero" fill="rgb(0%, 0%, 0%)" fill-opacity="0.01666" d="M 77.035156 41.128906 C 77.035156 32.519531 60.21875 25.539062 39.476562 25.539062 C 18.730469 25.539062 1.917969 32.519531 1.917969 41.128906 C 1.917969 49.738281 18.730469 56.71875 39.476562 56.71875 C 60.21875 56.71875 77.035156 49.738281 77.035156 41.128906 Z M 77.035156 41.128906 "/>
<path fill-rule="nonzero" fill="rgb(0%, 0%, 0%)" fill-opacity="0.01666" d="M 77.742188 41.128906 C 77.742188 32.257812 60.609375 25.066406 39.476562 25.066406 C 18.339844 25.066406 1.207031 32.257812 1.207031 41.128906 C 1.207031 50 18.339844 57.191406 39.476562 57.191406 C 60.609375 57.191406 77.742188 50 77.742188 41.128906 Z M 77.742188 41.128906 "/>
<g clip-path="url(#clip-0)">
<path fill-rule="nonzero" fill="rgb(0%, 0%, 0%)" fill-opacity="0.01666" d="M 78.453125 41.128906 C 78.453125 31.996094 61.003906 24.59375 39.476562 24.59375 C 17.949219 24.59375 0.5 31.996094 0.5 41.128906 C 0.5 50.261719 17.949219 57.664062 39.476562 57.664062 C 61.003906 57.664062 78.453125 50.261719 78.453125 41.128906 Z M 78.453125 41.128906 "/>
</g>
<path fill-rule="nonzero" fill="rgb(84.997559%, 87.5%, 85.499573%)" fill-opacity="1" d="M 67.824219 9.949219 C 67.824219 4.730469 55.132812 0.5 39.476562 0.5 C 23.820312 0.5 11.128906 4.730469 11.128906 9.949219 C 11.128906 15.167969 23.820312 19.398438 39.476562 19.398438 C 55.132812 19.398438 67.824219 15.167969 67.824219 9.949219 Z M 67.824219 9.949219 "/>
<g clip-path="url(#clip-1)">
<g clip-path="url(#clip-2)">
<path fill-rule="nonzero" fill="url(#linear-pattern-0)" d="M 67.113281 48.6875 L 11.839844 48.6875 L 11.839844 39.710938 L 67.113281 39.710938 Z M 67.113281 48.6875 "/>
</g>
</g>
<g clip-path="url(#clip-3)">
<g clip-path="url(#clip-4)">
<path fill-rule="nonzero" fill="url(#linear-pattern-1)" d="M 11.839844 18.453125 L 11.839844 0.5 L 67.113281 0.5 L 67.113281 18.453125 Z M 11.839844 18.453125 "/>
</g>
</g>
<g clip-path="url(#clip-5)">
<g clip-path="url(#clip-6)">
<path fill-rule="nonzero" fill="url(#linear-pattern-2)" d="M 67.824219 47.742188 L 11.128906 47.742188 L 11.128906 9.949219 L 67.824219 9.949219 Z M 67.824219 47.742188 "/>
</g>
</g>
<path fill-rule="nonzero" fill="rgb(0%, 0%, 0%)" fill-opacity="0.01999" d="M 23.175781 17.742188 L 32.140625 19.074219 L 32.140625 47.421875 C 22.359375 46.546875 14.714844 44 12.09375 40.742188 L 12.09375 12.394531 Z M 23.175781 17.742188 "/>
<path fill-rule="nonzero" fill="rgb(0%, 0%, 0%)" fill-opacity="0.01999" d="M 23.175781 17.742188 L 31.1875 18.984375 L 31.1875 47.332031 C 22.175781 46.414062 15.121094 44.0625 12.367188 41.058594 L 12.367188 12.710938 Z M 23.175781 17.742188 "/>
<path fill-rule="nonzero" fill="rgb(0%, 0%, 0%)" fill-opacity="0.01999" d="M 23.175781 17.742188 L 30.246094 18.882812 L 30.246094 47.230469 C 21.996094 46.28125 15.515625 44.121094 12.671875 41.371094 L 12.671875 13.023438 Z M 23.175781 17.742188 "/>
<path fill-rule="nonzero" fill="rgb(0%, 0%, 0%)" fill-opacity="0.01999" d="M 23.175781 17.742188 L 29.316406 18.769531 L 29.316406 47.117188 C 21.820312 46.15625 15.890625 44.179688 13.011719 41.679688 L 13.011719 13.335938 Z M 23.175781 17.742188 "/>
<path fill-rule="nonzero" fill="rgb(0%, 0%, 0%)" fill-opacity="0.01999" d="M 23.175781 17.742188 L 28.398438 18.644531 L 28.398438 46.992188 C 21.636719 46.035156 16.253906 44.242188 13.382812 41.988281 L 13.382812 13.640625 Z M 23.175781 17.742188 "/>
<path fill-rule="nonzero" fill="rgb(0%, 0%, 0%)" fill-opacity="0.01999" d="M 23.175781 17.742188 L 27.496094 18.511719 L 27.496094 46.859375 C 21.457031 45.917969 16.601562 44.300781 13.785156 42.289062 L 13.785156 13.941406 Z M 23.175781 17.742188 "/>
<path fill-rule="nonzero" fill="rgb(0%, 0%, 0%)" fill-opacity="0.01999" d="M 23.175781 17.742188 L 26.605469 18.367188 L 26.605469 46.714844 C 21.273438 45.808594 16.9375 44.363281 14.21875 42.585938 L 14.21875 14.238281 Z M 23.175781 17.742188 "/>
<path fill-rule="nonzero" fill="rgb(0%, 0%, 0%)" fill-opacity="0.01999" d="M 23.175781 17.742188 L 25.734375 18.210938 L 25.734375 46.558594 C 21.089844 45.699219 17.257812 44.425781 14.683594 42.875 L 14.683594 14.527344 Z M 23.175781 17.742188 "/>
<path fill-rule="nonzero" fill="rgb(0%, 0%, 0%)" fill-opacity="0.01999" d="M 23.175781 17.742188 L 24.875 18.046875 L 24.875 46.394531 C 20.898438 45.597656 17.566406 44.488281 15.179688 43.160156 L 15.179688 14.816406 Z M 23.175781 17.742188 "/>
<path fill-rule="nonzero" fill="rgb(0%, 0%, 0%)" fill-opacity="0.01999" d="M 23.175781 17.742188 L 24.035156 17.871094 L 24.035156 46.21875 C 20.707031 45.5 17.863281 44.550781 15.703125 43.441406 L 15.703125 15.09375 Z M 23.175781 17.742188 "/>
<path fill-rule="nonzero" fill="rgb(0%, 0%, 0%)" fill-opacity="0.01999" d="M 23.175781 17.742188 L 23.21875 17.6875 L 23.21875 46.035156 C 20.507812 45.402344 18.152344 44.617188 16.253906 43.714844 L 16.253906 15.367188 Z M 23.175781 17.742188 "/>
<path fill-rule="nonzero" fill="rgb(0%, 0%, 0%)" fill-opacity="0.01999" d="M 23.175781 17.742188 L 22.417969 17.492188 L 22.417969 45.839844 C 20.304688 45.3125 18.425781 44.683594 16.835938 43.980469 L 16.835938 15.632812 Z M 23.175781 17.742188 "/>
<path fill-rule="nonzero" fill="rgb(0%, 0%, 0%)" fill-opacity="0.01999" d="M 23.175781 17.742188 L 21.636719 17.289062 L 21.636719 45.636719 C 20.097656 45.222656 18.691406 44.753906 17.445312 44.242188 L 17.445312 15.894531 Z M 23.175781 17.742188 "/>
<path fill-rule="nonzero" fill="rgb(0%, 0%, 0%)" fill-opacity="0.01999" d="M 23.175781 17.742188 L 20.878906 17.078125 L 20.878906 45.425781 C 19.882812 45.136719 18.949219 44.824219 18.082031 44.492188 L 18.082031 16.148438 Z M 23.175781 17.742188 "/>
<path fill-rule="nonzero" fill="rgb(0%, 0%, 0%)" fill-opacity="0.01999" d="M 23.175781 17.742188 L 20.144531 16.859375 L 20.144531 45.203125 C 19.660156 45.054688 19.195312 44.898438 18.746094 44.738281 L 18.746094 16.390625 Z M 23.175781 17.742188 "/>
<path fill-rule="nonzero" fill="rgb(0%, 0%, 0%)" fill-opacity="0.01999" d="M 23.175781 17.742188 L 19.433594 16.628906 L 19.433594 44.976562 L 19.433594 16.628906 Z M 23.175781 17.742188 "/>
<path fill-rule="nonzero" fill="rgb(0%, 0%, 0%)" fill-opacity="0.01999" d="M 55.773438 17.742188 L 66.855469 12.394531 L 66.855469 40.738281 C 64.234375 44 56.59375 46.546875 46.8125 47.421875 L 46.8125 19.074219 Z M 55.773438 17.742188 "/>
<path fill-rule="nonzero" fill="rgb(0%, 0%, 0%)" fill-opacity="0.01999" d="M 55.773438 17.742188 L 66.585938 12.710938 L 66.585938 41.058594 C 63.828125 44.0625 56.773438 46.414062 47.765625 47.332031 L 47.765625 18.984375 Z M 55.773438 17.742188 "/>
<path fill-rule="nonzero" fill="rgb(0%, 0%, 0%)" fill-opacity="0.01999" d="M 55.773438 17.742188 L 66.277344 13.023438 L 66.277344 41.371094 C 63.4375 44.121094 56.953125 46.28125 48.703125 47.230469 L 48.703125 18.882812 Z M 55.773438 17.742188 "/>
<path fill-rule="nonzero" fill="rgb(0%, 0%, 0%)" fill-opacity="0.01999" d="M 55.773438 17.742188 L 65.941406 13.335938 L 65.941406 41.679688 C 63.0625 44.179688 57.132812 46.15625 49.632812 47.117188 L 49.632812 18.769531 Z M 55.773438 17.742188 "/>
<path fill-rule="nonzero" fill="rgb(0%, 0%, 0%)" fill-opacity="0.01999" d="M 55.773438 17.742188 L 65.570312 13.640625 L 65.570312 41.988281 C 62.699219 44.242188 57.3125 46.035156 50.550781 46.992188 L 50.550781 18.644531 Z M 55.773438 17.742188 "/>
<path fill-rule="nonzero" fill="rgb(0%, 0%, 0%)" fill-opacity="0.01999" d="M 55.773438 17.742188 L 65.167969 13.941406 L 65.167969 42.289062 C 62.351562 44.300781 57.496094 45.917969 51.457031 46.859375 L 51.457031 18.511719 Z M 55.773438 17.742188 "/>
<path fill-rule="nonzero" fill="rgb(0%, 0%, 0%)" fill-opacity="0.01999" d="M 55.773438 17.742188 L 64.734375 14.238281 L 64.734375 42.585938 C 62.015625 44.363281 57.679688 45.808594 52.34375 46.714844 L 52.34375 18.367188 Z M 55.773438 17.742188 "/>
<path fill-rule="nonzero" fill="rgb(0%, 0%, 0%)" fill-opacity="0.01999" d="M 55.773438 17.742188 L 64.269531 14.527344 L 64.269531 42.875 C 61.695312 44.425781 57.863281 45.699219 53.21875 46.558594 L 53.21875 18.210938 Z M 55.773438 17.742188 "/>
<path fill-rule="nonzero" fill="rgb(0%, 0%, 0%)" fill-opacity="0.01999" d="M 55.773438 17.742188 L 63.773438 14.816406 L 63.773438 43.160156 C 61.382812 44.488281 58.050781 45.597656 54.074219 46.394531 L 54.074219 18.046875 Z M 55.773438 17.742188 "/>
<path fill-rule="nonzero" fill="rgb(0%, 0%, 0%)" fill-opacity="0.01999" d="M 55.773438 17.742188 L 63.25 15.09375 L 63.25 43.441406 C 61.085938 44.550781 58.246094 45.5 54.914062 46.21875 L 54.914062 17.871094 Z M 55.773438 17.742188 "/>
<path fill-rule="nonzero" fill="rgb(0%, 0%, 0%)" fill-opacity="0.01999" d="M 55.773438 17.742188 L 62.695312 15.367188 L 62.695312 43.714844 C 60.800781 44.617188 58.441406 45.402344 55.734375 46.035156 L 55.734375 17.6875 Z M 55.773438 17.742188 "/>
<path fill-rule="nonzero" fill="rgb(0%, 0%, 0%)" fill-opacity="0.01999" d="M 55.773438 17.742188 L 62.113281 15.632812 L 62.113281 43.980469 C 60.523438 44.683594 58.644531 45.3125 56.535156 45.839844 L 56.535156 17.492188 Z M 55.773438 17.742188 "/>
<path fill-rule="nonzero" fill="rgb(0%, 0%, 0%)" fill-opacity="0.01999" d="M 55.773438 17.742188 L 61.503906 15.894531 L 61.503906 44.242188 C 60.257812 44.753906 58.855469 45.222656 57.316406 45.636719 L 57.316406 17.289062 Z M 55.773438 17.742188 "/>
<path fill-rule="nonzero" fill="rgb(0%, 0%, 0%)" fill-opacity="0.01999" d="M 55.773438 17.742188 L 60.871094 16.148438 L 60.871094 44.492188 C 60.003906 44.824219 59.070312 45.136719 58.074219 45.425781 L 58.074219 17.078125 Z M 55.773438 17.742188 "/>
<path fill-rule="nonzero" fill="rgb(0%, 0%, 0%)" fill-opacity="0.01999" d="M 55.773438 17.742188 L 60.207031 16.390625 L 60.207031 44.738281 C 59.757812 44.898438 59.289062 45.054688 58.808594 45.203125 L 58.808594 16.859375 Z M 55.773438 17.742188 "/>
<path fill-rule="nonzero" fill="rgb(0%, 0%, 0%)" fill-opacity="0.01999" d="M 55.773438 17.742188 L 59.519531 16.628906 L 59.519531 44.976562 L 59.519531 16.628906 Z M 55.773438 17.742188 "/>
</svg>
